<svg width="46" height="36" viewBox="0 0 46 36" fill="none" xmlns="http://www.w3.org/2000/svg">
<g id="Facebook-f_Logo-Blue-Logo.wine">
<g id="Group 439">
<path id="Vector" d="M35.4287 17.6836C35.4287 11.0562 30.0561 5.68359 23.4287 5.68359C16.8013 5.68359 11.4287 11.0562 11.4287 17.6836C11.4287 23.6731 15.8169 28.6376 21.5537 29.5378V21.1523H18.5068V17.6836H21.5537V15.0399C21.5537 12.0323 23.3452 10.3711 26.0863 10.3711C27.3992 10.3711 28.7725 10.6055 28.7725 10.6055V13.5586H27.2593C25.7686 13.5586 25.3037 14.4836 25.3037 15.4326V17.6836H28.6318L28.0998 21.1523H25.3037V29.5378C31.0405 28.6376 35.4287 23.6731 35.4287 17.6836Z" fill="#1877F2"/>
<path id="Vector_2" d="M28.0998 21.1523L28.6318 17.6836H25.3037V15.4326C25.3037 14.4836 25.7686 13.5586 27.2593 13.5586H28.7725V10.6055C28.7725 10.6055 27.3992 10.3711 26.0863 10.3711C23.3452 10.3711 21.5537 12.0323 21.5537 15.0398V17.6836H18.5068V21.1523H21.5537V29.5378C22.174 29.635 22.8009 29.6838 23.4287 29.6836C24.0666 29.6836 24.6928 29.6337 25.3037 29.5378V21.1523H28.0998Z" fill="white"/>
</g>
</g>
</svg>
