<svg width="46" height="36" viewBox="0 0 46 36" fill="none" xmlns="http://www.w3.org/2000/svg">
<path d="M34.5649 18.4852C34.5659 17.6961 34.4992 16.9085 34.3655 16.1309H23.4463V20.5902H29.7003C29.5724 21.3024 29.3015 21.9814 28.904 22.5861C28.5066 23.1908 27.9908 23.7088 27.3878 24.1088V27.0035H31.1203C33.3058 24.9885 34.5649 22.0086 34.5649 18.4852Z" fill="#4285F4"/>
<path d="M23.4462 29.8001C26.5708 29.8001 29.2017 28.7741 31.1202 27.0051L27.3878 24.1105C26.3489 24.8148 25.0109 25.2169 23.4462 25.2169C20.4261 25.2169 17.8628 23.181 16.9461 20.4375H13.1011V23.4206C14.0648 25.3383 15.5425 26.9503 17.3693 28.0768C19.1961 29.2034 21.3 29.8 23.4462 29.8001Z" fill="#34A853"/>
<path d="M16.9461 20.4386C16.4615 19.0009 16.4615 17.4441 16.9461 16.0065V13.0234H13.1011C12.2904 14.6366 11.8682 16.4171 11.8682 18.2225C11.8682 20.028 12.2904 21.8084 13.1011 23.4216L16.9461 20.4386Z" fill="#FBBC04"/>
<path d="M23.4462 11.2265C25.0974 11.1995 26.6929 11.8234 27.8879 12.9633L31.1926 9.65859C29.0971 7.69036 26.3209 6.60976 23.4462 6.64334C21.3 6.64344 19.1961 7.24004 17.3693 8.36656C15.5425 9.49307 14.0648 11.1051 13.1011 13.0228L16.9461 16.0059C17.8628 13.2624 20.4261 11.2265 23.4462 11.2265Z" fill="#EA4335"/>
</svg>
